<svg id="qrSvg" width="200" height="200" viewBox="0 0 200 200" fill="none" xmlns="http://www.w3.org/2000/svg">
            <!-- Pozadí SVG -->
            <rect x="0" y="0" width="200" height="200" fill="#ffffff"/>

            <!-- Funkce pro kreslení čtverce -->
            <script type="text/ecmascript">
                function drawSquare(x, y, size, fill) {
                    return `&lt;rect x="${x}" y="${y}" width="${size}" height="${size}" fill="${fill}"/&gt;`;
                }

                // Generování náhodné mřížky pro simulaci QR kódu
                let svgContent = '';
                const cellSize = 10; // Velikost jedné buňky
                const totalCells = 200 / cellSize; // 20x20 mřížka
                const darkGrey = '#333333'; // Nová tmavě šedá barva

                // Kreslení hlavních vyhledávacích vzorů (rohy)
                // Horní levý roh
                svgContent += drawSquare(0, 0, 7 * cellSize, darkGrey);
                svgContent += drawSquare(cellSize, cellSize, 5 * cellSize, '#ffffff');
                svgContent += drawSquare(2 * cellSize, 2 * cellSize, 3 * cellSize, darkGrey);

                // Horní pravý roh
                svgContent += drawSquare(200 - 7 * cellSize, 0, 7 * cellSize, darkGrey);
                svgContent += drawSquare(200 - 6 * cellSize, cellSize, 5 * cellSize, '#ffffff');
                svgContent += drawSquare(200 - 5 * cellSize, 2 * cellSize, 3 * cellSize, darkGrey);

                // Dolní levý roh
                svgContent += drawSquare(0, 200 - 7 * cellSize, 7 * cellSize, darkGrey);
                svgContent += drawSquare(cellSize, 200 - 6 * cellSize, 5 * cellSize, '#ffffff');
                svgContent += drawSquare(2 * cellSize, 200 - 5 * cellSize, 3 * cellSize, darkGrey);

                // Generování náhodných tmavě šedých a bílých čtverců pro zbytek kódu
                for (let i = 0; i &lt; totalCells; i++) {
                    for (let j = 0; j &lt; totalCells; j++) {
                        // Vyhneme se překrývání s rohovými vzory
                        const isCornerArea = (
                            (i &lt; 7 &amp;&amp; j &lt; 7) || // Horní levý
                            (i &lt; 7 &amp;&amp; j &gt;= totalCells - 7) || // Horní pravý
                            (i &gt;= totalCells - 7 &amp;&amp; j &lt; 7) // Dolní levý
                        );

                        if (!isCornerArea) {
                            const fill = Math.random() &gt; 0.5 ? darkGrey : '#ffffff';
                            svgContent += drawSquare(j * cellSize, i * cellSize, cellSize, fill);
                        }
                    }
                }

                // Vložení generovaného SVG obsahu
                document.currentScript.parentNode.innerHTML += svgContent;
            </script><rect x="0" y="0" width="70" height="70" fill="#333333"/><rect x="10" y="10" width="50" height="50" fill="#ffffff"/><rect x="20" y="20" width="30" height="30" fill="#333333"/><rect x="130" y="0" width="70" height="70" fill="#333333"/><rect x="140" y="10" width="50" height="50" fill="#ffffff"/><rect x="150" y="20" width="30" height="30" fill="#333333"/><rect x="0" y="130" width="70" height="70" fill="#333333"/><rect x="10" y="140" width="50" height="50" fill="#ffffff"/><rect x="20" y="150" width="30" height="30" fill="#333333"/><rect x="70" y="0" width="10" height="10" fill="#333333"/><rect x="80" y="0" width="10" height="10" fill="#ffffff"/><rect x="90" y="0" width="10" height="10" fill="#333333"/><rect x="100" y="0" width="10" height="10" fill="#333333"/><rect x="110" y="0" width="10" height="10" fill="#333333"/><rect x="120" y="0" width="10" height="10" fill="#333333"/><rect x="70" y="10" width="10" height="10" fill="#333333"/><rect x="80" y="10" width="10" height="10" fill="#ffffff"/><rect x="90" y="10" width="10" height="10" fill="#333333"/><rect x="100" y="10" width="10" height="10" fill="#ffffff"/><rect x="110" y="10" width="10" height="10" fill="#333333"/><rect x="120" y="10" width="10" height="10" fill="#333333"/><rect x="70" y="20" width="10" height="10" fill="#ffffff"/><rect x="80" y="20" width="10" height="10" fill="#ffffff"/><rect x="90" y="20" width="10" height="10" fill="#ffffff"/><rect x="100" y="20" width="10" height="10" fill="#333333"/><rect x="110" y="20" width="10" height="10" fill="#ffffff"/><rect x="120" y="20" width="10" height="10" fill="#ffffff"/><rect x="70" y="30" width="10" height="10" fill="#333333"/><rect x="80" y="30" width="10" height="10" fill="#ffffff"/><rect x="90" y="30" width="10" height="10" fill="#ffffff"/><rect x="100" y="30" width="10" height="10" fill="#333333"/><rect x="110" y="30" width="10" height="10" fill="#ffffff"/><rect x="120" y="30" width="10" height="10" fill="#333333"/><rect x="70" y="40" width="10" height="10" fill="#333333"/><rect x="80" y="40" width="10" height="10" fill="#ffffff"/><rect x="90" y="40" width="10" height="10" fill="#333333"/><rect x="100" y="40" width="10" height="10" fill="#ffffff"/><rect x="110" y="40" width="10" height="10" fill="#333333"/><rect x="120" y="40" width="10" height="10" fill="#333333"/><rect x="70" y="50" width="10" height="10" fill="#333333"/><rect x="80" y="50" width="10" height="10" fill="#333333"/><rect x="90" y="50" width="10" height="10" fill="#333333"/><rect x="100" y="50" width="10" height="10" fill="#ffffff"/><rect x="110" y="50" width="10" height="10" fill="#ffffff"/><rect x="120" y="50" width="10" height="10" fill="#ffffff"/><rect x="70" y="60" width="10" height="10" fill="#333333"/><rect x="80" y="60" width="10" height="10" fill="#ffffff"/><rect x="90" y="60" width="10" height="10" fill="#ffffff"/><rect x="100" y="60" width="10" height="10" fill="#333333"/><rect x="110" y="60" width="10" height="10" fill="#ffffff"/><rect x="120" y="60" width="10" height="10" fill="#333333"/><rect x="0" y="70" width="10" height="10" fill="#ffffff"/><rect x="10" y="70" width="10" height="10" fill="#ffffff"/><rect x="20" y="70" width="10" height="10" fill="#ffffff"/><rect x="30" y="70" width="10" height="10" fill="#333333"/><rect x="40" y="70" width="10" height="10" fill="#333333"/><rect x="50" y="70" width="10" height="10" fill="#333333"/><rect x="60" y="70" width="10" height="10" fill="#333333"/><rect x="70" y="70" width="10" height="10" fill="#333333"/><rect x="80" y="70" width="10" height="10" fill="#ffffff"/><rect x="90" y="70" width="10" height="10" fill="#333333"/><rect x="100" y="70" width="10" height="10" fill="#333333"/><rect x="110" y="70" width="10" height="10" fill="#ffffff"/><rect x="120" y="70" width="10" height="10" fill="#333333"/><rect x="130" y="70" width="10" height="10" fill="#ffffff"/><rect x="140" y="70" width="10" height="10" fill="#ffffff"/><rect x="150" y="70" width="10" height="10" fill="#333333"/><rect x="160" y="70" width="10" height="10" fill="#ffffff"/><rect x="170" y="70" width="10" height="10" fill="#ffffff"/><rect x="180" y="70" width="10" height="10" fill="#333333"/><rect x="190" y="70" width="10" height="10" fill="#ffffff"/><rect x="0" y="80" width="10" height="10" fill="#ffffff"/><rect x="10" y="80" width="10" height="10" fill="#ffffff"/><rect x="20" y="80" width="10" height="10" fill="#333333"/><rect x="30" y="80" width="10" height="10" fill="#333333"/><rect x="40" y="80" width="10" height="10" fill="#ffffff"/><rect x="50" y="80" width="10" height="10" fill="#ffffff"/><rect x="60" y="80" width="10" height="10" fill="#ffffff"/><rect x="70" y="80" width="10" height="10" fill="#ffffff"/><rect x="80" y="80" width="10" height="10" fill="#333333"/><rect x="90" y="80" width="10" height="10" fill="#333333"/><rect x="100" y="80" width="10" height="10" fill="#ffffff"/><rect x="110" y="80" width="10" height="10" fill="#333333"/><rect x="120" y="80" width="10" height="10" fill="#333333"/><rect x="130" y="80" width="10" height="10" fill="#ffffff"/><rect x="140" y="80" width="10" height="10" fill="#333333"/><rect x="150" y="80" width="10" height="10" fill="#ffffff"/><rect x="160" y="80" width="10" height="10" fill="#333333"/><rect x="170" y="80" width="10" height="10" fill="#333333"/><rect x="180" y="80" width="10" height="10" fill="#ffffff"/><rect x="190" y="80" width="10" height="10" fill="#333333"/><rect x="0" y="90" width="10" height="10" fill="#ffffff"/><rect x="10" y="90" width="10" height="10" fill="#ffffff"/><rect x="20" y="90" width="10" height="10" fill="#ffffff"/><rect x="30" y="90" width="10" height="10" fill="#ffffff"/><rect x="40" y="90" width="10" height="10" fill="#ffffff"/><rect x="50" y="90" width="10" height="10" fill="#ffffff"/><rect x="60" y="90" width="10" height="10" fill="#ffffff"/><rect x="70" y="90" width="10" height="10" fill="#333333"/><rect x="80" y="90" width="10" height="10" fill="#333333"/><rect x="90" y="90" width="10" height="10" fill="#ffffff"/><rect x="100" y="90" width="10" height="10" fill="#333333"/><rect x="110" y="90" width="10" height="10" fill="#333333"/><rect x="120" y="90" width="10" height="10" fill="#ffffff"/><rect x="130" y="90" width="10" height="10" fill="#ffffff"/><rect x="140" y="90" width="10" height="10" fill="#333333"/><rect x="150" y="90" width="10" height="10" fill="#ffffff"/><rect x="160" y="90" width="10" height="10" fill="#333333"/><rect x="170" y="90" width="10" height="10" fill="#ffffff"/><rect x="180" y="90" width="10" height="10" fill="#ffffff"/><rect x="190" y="90" width="10" height="10" fill="#333333"/><rect x="0" y="100" width="10" height="10" fill="#333333"/><rect x="10" y="100" width="10" height="10" fill="#333333"/><rect x="20" y="100" width="10" height="10" fill="#ffffff"/><rect x="30" y="100" width="10" height="10" fill="#ffffff"/><rect x="40" y="100" width="10" height="10" fill="#333333"/><rect x="50" y="100" width="10" height="10" fill="#333333"/><rect x="60" y="100" width="10" height="10" fill="#333333"/><rect x="70" y="100" width="10" height="10" fill="#333333"/><rect x="80" y="100" width="10" height="10" fill="#ffffff"/><rect x="90" y="100" width="10" height="10" fill="#333333"/><rect x="100" y="100" width="10" height="10" fill="#333333"/><rect x="110" y="100" width="10" height="10" fill="#ffffff"/><rect x="120" y="100" width="10" height="10" fill="#ffffff"/><rect x="130" y="100" width="10" height="10" fill="#ffffff"/><rect x="140" y="100" width="10" height="10" fill="#ffffff"/><rect x="150" y="100" width="10" height="10" fill="#ffffff"/><rect x="160" y="100" width="10" height="10" fill="#333333"/><rect x="170" y="100" width="10" height="10" fill="#ffffff"/><rect x="180" y="100" width="10" height="10" fill="#333333"/><rect x="190" y="100" width="10" height="10" fill="#333333"/><rect x="0" y="110" width="10" height="10" fill="#ffffff"/><rect x="10" y="110" width="10" height="10" fill="#333333"/><rect x="20" y="110" width="10" height="10" fill="#ffffff"/><rect x="30" y="110" width="10" height="10" fill="#ffffff"/><rect x="40" y="110" width="10" height="10" fill="#ffffff"/><rect x="50" y="110" width="10" height="10" fill="#ffffff"/><rect x="60" y="110" width="10" height="10" fill="#333333"/><rect x="70" y="110" width="10" height="10" fill="#333333"/><rect x="80" y="110" width="10" height="10" fill="#ffffff"/><rect x="90" y="110" width="10" height="10" fill="#333333"/><rect x="100" y="110" width="10" height="10" fill="#ffffff"/><rect x="110" y="110" width="10" height="10" fill="#ffffff"/><rect x="120" y="110" width="10" height="10" fill="#ffffff"/><rect x="130" y="110" width="10" height="10" fill="#333333"/><rect x="140" y="110" width="10" height="10" fill="#ffffff"/><rect x="150" y="110" width="10" height="10" fill="#333333"/><rect x="160" y="110" width="10" height="10" fill="#333333"/><rect x="170" y="110" width="10" height="10" fill="#333333"/><rect x="180" y="110" width="10" height="10" fill="#ffffff"/><rect x="190" y="110" width="10" height="10" fill="#333333"/><rect x="0" y="120" width="10" height="10" fill="#ffffff"/><rect x="10" y="120" width="10" height="10" fill="#ffffff"/><rect x="20" y="120" width="10" height="10" fill="#333333"/><rect x="30" y="120" width="10" height="10" fill="#ffffff"/><rect x="40" y="120" width="10" height="10" fill="#ffffff"/><rect x="50" y="120" width="10" height="10" fill="#ffffff"/><rect x="60" y="120" width="10" height="10" fill="#ffffff"/><rect x="70" y="120" width="10" height="10" fill="#333333"/><rect x="80" y="120" width="10" height="10" fill="#333333"/><rect x="90" y="120" width="10" height="10" fill="#ffffff"/><rect x="100" y="120" width="10" height="10" fill="#ffffff"/><rect x="110" y="120" width="10" height="10" fill="#ffffff"/><rect x="120" y="120" width="10" height="10" fill="#ffffff"/><rect x="130" y="120" width="10" height="10" fill="#ffffff"/><rect x="140" y="120" width="10" height="10" fill="#333333"/><rect x="150" y="120" width="10" height="10" fill="#ffffff"/><rect x="160" y="120" width="10" height="10" fill="#ffffff"/><rect x="170" y="120" width="10" height="10" fill="#ffffff"/><rect x="180" y="120" width="10" height="10" fill="#ffffff"/><rect x="190" y="120" width="10" height="10" fill="#333333"/><rect x="70" y="130" width="10" height="10" fill="#333333"/><rect x="80" y="130" width="10" height="10" fill="#333333"/><rect x="90" y="130" width="10" height="10" fill="#333333"/><rect x="100" y="130" width="10" height="10" fill="#333333"/><rect x="110" y="130" width="10" height="10" fill="#ffffff"/><rect x="120" y="130" width="10" height="10" fill="#ffffff"/><rect x="130" y="130" width="10" height="10" fill="#ffffff"/><rect x="140" y="130" width="10" height="10" fill="#333333"/><rect x="150" y="130" width="10" height="10" fill="#333333"/><rect x="160" y="130" width="10" height="10" fill="#ffffff"/><rect x="170" y="130" width="10" height="10" fill="#333333"/><rect x="180" y="130" width="10" height="10" fill="#ffffff"/><rect x="190" y="130" width="10" height="10" fill="#333333"/><rect x="70" y="140" width="10" height="10" fill="#ffffff"/><rect x="80" y="140" width="10" height="10" fill="#333333"/><rect x="90" y="140" width="10" height="10" fill="#ffffff"/><rect x="100" y="140" width="10" height="10" fill="#333333"/><rect x="110" y="140" width="10" height="10" fill="#333333"/><rect x="120" y="140" width="10" height="10" fill="#ffffff"/><rect x="130" y="140" width="10" height="10" fill="#ffffff"/><rect x="140" y="140" width="10" height="10" fill="#ffffff"/><rect x="150" y="140" width="10" height="10" fill="#333333"/><rect x="160" y="140" width="10" height="10" fill="#333333"/><rect x="170" y="140" width="10" height="10" fill="#ffffff"/><rect x="180" y="140" width="10" height="10" fill="#ffffff"/><rect x="190" y="140" width="10" height="10" fill="#333333"/><rect x="70" y="150" width="10" height="10" fill="#ffffff"/><rect x="80" y="150" width="10" height="10" fill="#ffffff"/><rect x="90" y="150" width="10" height="10" fill="#ffffff"/><rect x="100" y="150" width="10" height="10" fill="#ffffff"/><rect x="110" y="150" width="10" height="10" fill="#333333"/><rect x="120" y="150" width="10" height="10" fill="#333333"/><rect x="130" y="150" width="10" height="10" fill="#ffffff"/><rect x="140" y="150" width="10" height="10" fill="#ffffff"/><rect x="150" y="150" width="10" height="10" fill="#333333"/><rect x="160" y="150" width="10" height="10" fill="#333333"/><rect x="170" y="150" width="10" height="10" fill="#333333"/><rect x="180" y="150" width="10" height="10" fill="#ffffff"/><rect x="190" y="150" width="10" height="10" fill="#ffffff"/><rect x="70" y="160" width="10" height="10" fill="#333333"/><rect x="80" y="160" width="10" height="10" fill="#ffffff"/><rect x="90" y="160" width="10" height="10" fill="#333333"/><rect x="100" y="160" width="10" height="10" fill="#ffffff"/><rect x="110" y="160" width="10" height="10" fill="#ffffff"/><rect x="120" y="160" width="10" height="10" fill="#ffffff"/><rect x="130" y="160" width="10" height="10" fill="#333333"/><rect x="140" y="160" width="10" height="10" fill="#ffffff"/><rect x="150" y="160" width="10" height="10" fill="#333333"/><rect x="160" y="160" width="10" height="10" fill="#ffffff"/><rect x="170" y="160" width="10" height="10" fill="#333333"/><rect x="180" y="160" width="10" height="10" fill="#333333"/><rect x="190" y="160" width="10" height="10" fill="#ffffff"/><rect x="70" y="170" width="10" height="10" fill="#333333"/><rect x="80" y="170" width="10" height="10" fill="#ffffff"/><rect x="90" y="170" width="10" height="10" fill="#ffffff"/><rect x="100" y="170" width="10" height="10" fill="#333333"/><rect x="110" y="170" width="10" height="10" fill="#333333"/><rect x="120" y="170" width="10" height="10" fill="#ffffff"/><rect x="130" y="170" width="10" height="10" fill="#ffffff"/><rect x="140" y="170" width="10" height="10" fill="#333333"/><rect x="150" y="170" width="10" height="10" fill="#333333"/><rect x="160" y="170" width="10" height="10" fill="#ffffff"/><rect x="170" y="170" width="10" height="10" fill="#333333"/><rect x="180" y="170" width="10" height="10" fill="#ffffff"/><rect x="190" y="170" width="10" height="10" fill="#333333"/><rect x="70" y="180" width="10" height="10" fill="#ffffff"/><rect x="80" y="180" width="10" height="10" fill="#ffffff"/><rect x="90" y="180" width="10" height="10" fill="#ffffff"/><rect x="100" y="180" width="10" height="10" fill="#333333"/><rect x="110" y="180" width="10" height="10" fill="#333333"/><rect x="120" y="180" width="10" height="10" fill="#333333"/><rect x="130" y="180" width="10" height="10" fill="#ffffff"/><rect x="140" y="180" width="10" height="10" fill="#ffffff"/><rect x="150" y="180" width="10" height="10" fill="#ffffff"/><rect x="160" y="180" width="10" height="10" fill="#333333"/><rect x="170" y="180" width="10" height="10" fill="#333333"/><rect x="180" y="180" width="10" height="10" fill="#333333"/><rect x="190" y="180" width="10" height="10" fill="#ffffff"/><rect x="70" y="190" width="10" height="10" fill="#ffffff"/><rect x="80" y="190" width="10" height="10" fill="#ffffff"/><rect x="90" y="190" width="10" height="10" fill="#333333"/><rect x="100" y="190" width="10" height="10" fill="#333333"/><rect x="110" y="190" width="10" height="10" fill="#ffffff"/><rect x="120" y="190" width="10" height="10" fill="#333333"/><rect x="130" y="190" width="10" height="10" fill="#333333"/><rect x="140" y="190" width="10" height="10" fill="#ffffff"/><rect x="150" y="190" width="10" height="10" fill="#333333"/><rect x="160" y="190" width="10" height="10" fill="#333333"/><rect x="170" y="190" width="10" height="10" fill="#333333"/><rect x="180" y="190" width="10" height="10" fill="#ffffff"/><rect x="190" y="190" width="10" height="10" fill="#ffffff"/>
        </svg>